<?xml version="1.0" standalone="no"?>
<!DOCTYPE svg PUBLIC "-//W3C//DTD SVG 20010904//EN"
 "http://www.w3.org/TR/2001/REC-SVG-20010904/DTD/svg10.dtd">
<svg version="1.0" xmlns="http://www.w3.org/2000/svg"
 width="596.000000pt" height="596.000000pt" viewBox="0 0 596.000000 596.000000"
 preserveAspectRatio="xMidYMid meet">
<metadata>
Created by potrace 1.14, written by Peter Selinger 2001-2017
</metadata>
<g transform="translate(0.000000,596.000000) scale(0.100000,-0.100000)"
fill="#000000" stroke="none">
<path d="M2917 5134 c-1 -1 -42 -4 -92 -7 -93 -7 -145 -12 -205 -23 -19 -3
-46 -8 -60 -10 -91 -16 -336 -88 -354 -105 -6 -5 -17 -9 -25 -9 -28 0 -278
-129 -382 -198 -208 -137 -399 -316 -551 -517 -104 -138 -217 -344 -284 -516
-34 -88 -97 -318 -109 -399 -4 -25 -9 -54 -11 -65 -25 -133 -24 -457 1 -625
50 -327 192 -682 368 -920 23 -30 59 -80 81 -110 55 -74 244 -262 336 -335
152 -121 318 -221 491 -296 96 -42 253 -96 303 -105 16 -3 32 -7 36 -9 3 -2
17 -6 31 -9 28 -6 122 -23 164 -31 149 -26 493 -26 650 0 17 3 53 10 80 15 28
6 59 12 70 14 82 16 273 77 355 113 133 60 323 160 364 194 6 5 47 35 91 67
143 105 260 217 386 369 210 254 388 632 443 943 2 14 7 41 10 60 3 19 8 49
11 65 3 17 8 75 12 130 28 415 -47 787 -231 1148 -52 101 -167 282 -216 341
-103 122 -158 181 -228 248 -277 261 -664 463 -1022 534 -133 26 -176 32 -270
40 -67 5 -239 11 -243 8z"/>
</g>
</svg>
