<svg width="25" height="25" viewBox="0 0 256 256" fill="none" xmlns="http://www.w3.org/2000/svg">
  <path fill="#589636" d="M127.9 0c-.3 3.7-.6 7.3-1 11-2.1 19.7-9 37.1-20.3 53.2-6.8 9.7-14.3 18.8-21 28.7-4.5 6.7-8.1 13.9-10.3 21.7-2.9 10.2-3.2 20.5-1.7 31 2.5 16.7 9 31.7 17.4 46.1 5.9 10.2 13 19.4 21.4 27.5 2.5 2.4 4.9 4.9 7.6 7.1 2.3 1.9 4.8 3.5 7.5 5.4.3-1.2.7-2.3.8-3.5.6-7.2 1.3-14.3 1.6-21.5.2-4.5.3-9 .3-13.6V0h-.2z"/>
  <path fill="#6CAC48" d="M127.9 0v204.7c0 4.6-.1 9-.3 13.6-.3 7.2-1 14.3-1.6 21.5-.1 1.2-.5 2.3-.8 3.5 3.4-2.5 6.9-4.8 10-7.6 9.5-8.4 17.4-18.2 23.8-29.4 9.6-17.2 16-35.5 17.4-55.4 1-14.8-1.4-28.9-9.1-41.8-6.1-10.4-14.5-19.1-22.3-28.2-10.6-12.2-19.7-25.5-26.1-40.6C131 31.3 128.7 16.1 127.9 0z"/>
  <path fill="#C2BFBF" d="M127.9 224.2c-.5 5.2-1 10.4-1.5 15.6-.1 1.1-.6 2.2-.9 3.3-5.3-3.4-10.1-7.6-14.6-12.3-2.5-2.6-4.6-5.5-6.9-8.3-1.2-1.5-1.2-1.5.3-2.6 4.3-3.4 8.3-7.1 11.7-11.5 3.3-4.2 6-8.8 7.8-13.9.6-1.7 1-3.4 1.6-5.2.1 11.5.4 22.9.5 34.4z"/>
</svg>
